<svg xmlns="http://www.w3.org/2000/svg" viewBox="0 0 146 146"><defs><style>.cls-1{fill:#00d0c0;}</style></defs><title>service4</title><g id="Layer_2" data-name="Layer 2"><g id="Layer_1-2" data-name="Layer 1"><path class="cls-1" d="M73,0a73,73,0,1,0,73,73A73.08,73.08,0,0,0,73,0Zm0,136a63,63,0,1,1,63-63A63.07,63.07,0,0,1,73,136Z"/><path class="cls-1" d="M102,57.55l7.56-10.21-10.9-10.9L88.45,44a32.65,32.65,0,0,0-5.87-2.43L80.7,29H65.29L63.42,41.57A32.64,32.64,0,0,0,57.55,44L47.33,36.44l-10.9,10.9L44,57.55a32.64,32.64,0,0,0-2.43,5.87L29,65.3V80.7l12.57,1.87A32.64,32.64,0,0,0,44,88.45L36.44,98.66l10.9,10.9L57.55,102a32.64,32.64,0,0,0,5.87,2.43L65.29,117H80.7l1.87-12.57A32.65,32.65,0,0,0,88.45,102l10.21,7.56,10.9-10.9L102,88.45a32.63,32.63,0,0,0,2.43-5.87L117,80.7V65.3l-12.57-1.87A32.63,32.63,0,0,0,102,57.55ZM73,92.7A20.35,20.35,0,1,1,93.35,72.35,20.35,20.35,0,0,1,73,92.7Z"/></g></g></svg>