<svg xmlns="http://www.w3.org/2000/svg" viewBox="0 0 146 146"><defs><style>.cls-1{fill:#00d0c0;}</style></defs><title>service1</title><g id="Layer_2" data-name="Layer 2"><g id="Layer_1-2" data-name="Layer 1"><path class="cls-1" d="M73,0a73,73,0,1,0,73,73A73.08,73.08,0,0,0,73,0Zm63,73a63,63,0,0,1-30.61,54l.09-.28q7.29-21.06,14.58-42.12c2.18-6.29,4.46-12.54,6.56-18.85a53.37,53.37,0,0,0,2.78-18.53c0-.85-.08-1.69-.15-2.54A62.59,62.59,0,0,1,136,73ZM73,136a62.78,62.78,0,0,1-17.94-2.62L73.7,79.22c0-.13.12-.25.28-.58l19.67,53.87A62.7,62.7,0,0,1,73,136ZM10,73a62.65,62.65,0,0,1,5-24.51L44.39,129.1A63.05,63.05,0,0,1,10,73ZM73,10a62.72,62.72,0,0,1,41.42,15.59,11,11,0,0,0-9.76,8.88,13.58,13.58,0,0,0,.56,7.27,33.32,33.32,0,0,0,3.13,6.41c1.23,2.08,2.52,4.14,3.67,6.27a32.18,32.18,0,0,1,3.57,10.36,33.84,33.84,0,0,1-.37,11.85,59.22,59.22,0,0,1-2.66,9.61c-1.82,4.86-3.17,9.86-4.7,14.81-.93,3-1.82,6.09-2.74,9.13-.09.31-.21.61-.41,1.19l-23-68.43c.39-.06.7-.12,1-.15,2-.17,4-.31,6-.51a2.64,2.64,0,0,0,2.62-3,2.48,2.48,0,0,0-2.28-2.29,7.12,7.12,0,0,0-1,0c-5.33.25-10.66.66-16,.69-4.8,0-9.6-.35-14.4-.55-1,0-2-.15-3.06-.18a2.6,2.6,0,0,0-2.78,2.54,2.53,2.53,0,0,0,2.38,2.79c1.92.22,3.84.4,5.76.51a1.26,1.26,0,0,1,1.3,1q4.64,12.8,9.33,25.58a2.16,2.16,0,0,1,.05,1.53Q63.9,91,57.2,111.09c-.06.17-.14.33-.2.5h-.22L33.7,42.94c.44-.07.73-.12,1-.15,2-.17,4-.31,6-.51a2.68,2.68,0,0,0,2.66-2.82,2.56,2.56,0,0,0-2.76-2.54c-1.06,0-2.12.13-3.17.2-5.52.36-11,.67-16.57.55A63,63,0,0,1,73,10Z"/></g></g></svg>