<svg xmlns="http://www.w3.org/2000/svg" viewBox="0 0 146 146"><defs><style>.cls-1{fill:#00d0c0;}</style></defs><title>service2</title><g id="Layer_2" data-name="Layer 2"><g id="Layer_1-2" data-name="Layer 1"><path class="cls-1" d="M93.71,24H52.29a5,5,0,0,0-5,5V117a5,5,0,0,0,5,5H93.71a5,5,0,0,0,5-5V29A5,5,0,0,0,93.71,24Zm-30,10.44v-4H82.26v5H63.74Zm14.43,77a5.19,5.19,0,0,1-10.34,0c0-.17-.05-.33-.05-.5a5.22,5.22,0,1,1,10.44,0C78.22,111.13,78.19,111.29,78.17,111.46ZM89.67,101h-33V42h33Z"/><path class="cls-1" d="M73,0a73,73,0,1,0,73,73A73.08,73.08,0,0,0,73,0Zm0,136a63,63,0,1,1,63-63A63.07,63.07,0,0,1,73,136Z"/></g></g></svg>