<svg xmlns="http://www.w3.org/2000/svg" viewBox="0 0 146 146"><defs><style>.cls-1{fill:#00d0c0;}</style></defs><title>service3</title><g id="Layer_2" data-name="Layer 2"><g id="Layer_1-2" data-name="Layer 1"><circle class="cls-1" cx="55.05" cy="39.13" r="13.32"/><path class="cls-1" d="M73.17,78.36a19.26,19.26,0,0,1-7.45-15.23c0-.32,0-.63,0-.94V62c0-.58.1-1.15.18-1.72A41.23,41.23,0,0,0,55,58.84a41.83,41.83,0,0,0-24.58,8l-.46.34V88.69H53l1-.49,2.43-1.8.14-.1L57,86c1.19-.86,2.48-1.7,3.83-2.49A48.05,48.05,0,0,1,73.17,78.36Z"/><path class="cls-1" d="M104.1,87.48a42,42,0,0,0-7.55-3Q95,84,93.36,83.68t-3.27-.54q-1.24-.15-2.5-.23T85,82.84h0a41.5,41.5,0,0,0-5,.3H80q-.83.1-1.65.24a41.83,41.83,0,0,0-14.53,5.3c-1.15.68-2.28,1.41-3.36,2.19l-.46.34v21.46h50.09V91.22l-.46-.34A43.5,43.5,0,0,0,104.1,87.48Z"/><path class="cls-1" d="M79.86,75.4l.23.08a13.2,13.2,0,0,0,2.27.69,13.38,13.38,0,0,0,2.68.27h0a13.38,13.38,0,0,0,2.68-.27,13.22,13.22,0,0,0,2.5-.78,13.33,13.33,0,0,0,0-24.55,13.23,13.23,0,0,0-2.5-.78A13.39,13.39,0,0,0,85,49.8h0a13.38,13.38,0,0,0-2.68.27,13.31,13.31,0,0,0-10.6,12.3c0,.25,0,.5,0,.75A13.31,13.31,0,0,0,79.86,75.4Z"/><path class="cls-1" d="M73,0a73,73,0,1,0,73,73A73.08,73.08,0,0,0,73,0Zm0,136a63,63,0,1,1,63-63A63.07,63.07,0,0,1,73,136Z"/></g></g></svg>